# xmcd
#
# Track frame offsets: 
#        150
#        11892
#        30351
#        46155
#        58813
#        75771
#        94182
#        113974
#        127229
#        144747
#        166286
#        181663
#        194615
#
# Disc length: 2747 seconds
#
# Revision: 0
# Processed by: cddbd v1.5.1PL0 Copyright (c) Steve Scherf et al.
# Submitted via: ExactAudioCopy v0.90b4
#
DISCID=ab0ab90d
DTITLE=Hank Wangford and The Lost Cowboys - Best Foot Forward
DYEAR=2003
DGENRE=Country
TTITLE0=Nothing Left
TTITLE1=Falling Angels
TTITLE2=Forgetful Man
TTITLE3=Welcome Here
TTITLE4=Waltz of the Seasons
TTITLE5=Man in the Moon
TTITLE6=Two Left Feet
TTITLE7=Watcha Gonna Do
TTITLE8=Wild Atlantic Sea
TTITLE9=Wild is the Wind
TTITLE10=Must You Throw Dirt in My Face?
TTITLE11=Diamond Heart
TTITLE12=Shadows
EXTD=
EXTT0=
EXTT1=
EXTT2=
EXTT3=
EXTT4=
EXTT5=
EXTT6=
EXTT7=
EXTT8=
EXTT9=
EXTT10=
EXTT11=
EXTT12=
PLAYORDER=
